<?xml version="1.0" encoding="UTF-8" standalone="no"?>
<!DOCTYPE svg PUBLIC "-//W3C//DTD SVG 1.1//EN" "http://www.w3.org/Graphics/SVG/1.1/DTD/svg11.dtd">
<svg width="16" height="16" viewBox="0 0 16 16" xmlns="http://www.w3.org/2000/svg" xmlns:xlink="http://www.w3.org/1999/xlink">
	<rect width="16" height="16" fill="#0094ff"/>
	<rect x="2" y="2" width="12" height="1" fill="white"/>
	<rect x="2" y="4" width="1" height="4" fill="white"/>
	<polyline points="4,4 5,4 5,6 6,6 6,4 7,4 7,8 6,8 6,7 4,7" fill="white"/>
	<rect x="8" y="4" width="1" height="4" fill="white"/>
	<polyline points="11,4 12,4 12,6 14,6 14,4 13,4 13,8 14,8 14,7 12,7 12,8 11,8" fill="white"/>
	<polyline points="6,9 8,9 8,10 14,10 14,13 13,13 13,14 3,14 3,13 2,13 2,10 6,10" fill="white"/>
	<rect x="3" y="11" width="3" height="1" fill="#0094ff"/>
	<rect x="7" y="10" width="1" height="1" fill="#0094ff"/>
	<rect x="8" y="11" width="2" height="2" fill="#0094ff"/>
	<rect x="11" y="11" width="2" height="1" fill="#0094ff"/>
</svg>
