<?xml version="1.0" encoding="UTF-8" standalone="no"?>
<!DOCTYPE svg PUBLIC "-//W3C//DTD SVG 1.1//EN" "http://www.w3.org/Graphics/SVG/1.1/DTD/svg11.dtd">
<svg width="16" height="16" viewBox="0 0 16 16" xmlns="http://www.w3.org/2000/svg" xmlns:xlink="http://www.w3.org/1999/xlink">
	<rect width="16" height="16" fill="#63c6bc"/>
	<polyline points="2,2 7,2 7,8 6,8 6,9 7,9 7,14 2,14 2,9 3,9 3,8 2,8" fill="white"/>
	<polyline points="8,2 14,2 14,9 12,9 12,11 10,11 10,7 12,7 12,4 10,4 10,5 8,5" fill="white"/>
	<rect x="10" y="12" width="2" height="2" fill="white"/>
	<rect x="4" y="4" width="1" height="3" fill="#63c6bc"/>
	<rect x="4" y="10" width="1" height="2" fill="#63c6bc"/>
</svg>
