<?xml version="1.0" encoding="UTF-8" standalone="no"?>
<!DOCTYPE svg PUBLIC "-//W3C//DTD SVG 1.1//EN" "http://www.w3.org/Graphics/SVG/1.1/DTD/svg11.dtd">
<svg width="16" height="16" viewBox="0 0 16 16" xmlns="http://www.w3.org/2000/svg" xmlns:xlink="http://www.w3.org/1999/xlink">
	<rect width="16" height="16" fill="#800845"/>
	<polyline points="4,2 7,2 7,3 6,3 6,7 5,7 5,6 4,6 4,5 5,5 5,3 4,3" fill="white"/>
	<polyline points="9,2 12,2 12,3 11,3 11,5 12,5 12,6 11,6 11,7 10,7 10,3 9,3" fill="white"/>
	<polyline points="10,8 11,8 11,11 10,11 10,10 13,10 13,12 14,12 14,11 12,11 12,9 10,9" fill="white"/>
	<polyline points="5,8 6,8 6,9 4,9 4,11 2,11 2,12 3,12 3,10 6,10 6,11 5,11" fill="white"/>
	<polyline points="3,12 5,12 5,14 11,14 11,12 13,12 13,13 3,13" fill="white"/>
	<rect x="3" y="3" width="1" height="2" fill="white"/>
	<rect x="12" y="3" width="1" height="2" fill="white"/>
	<rect x="7" y="3" width="2" height="3" fill="white"/>
	<rect x="6" y="7" width="4" height="5" fill="white"/>
</svg>
