<?xml version="1.0" encoding="UTF-8" standalone="no"?>
<!DOCTYPE svg PUBLIC "-//W3C//DTD SVG 1.1//EN" "http://www.w3.org/Graphics/SVG/1.1/DTD/svg11.dtd">
<svg width="16" height="16" viewBox="0 0 16 16" xmlns="http://www.w3.org/2000/svg" xmlns:xlink="http://www.w3.org/1999/xlink">
	<rect width="16" height="16" fill="#a34cce"/>
	<polyline points="2,2 3,2 3,3 4,3 4,6 5,6 5,4 3,4 3,6 2,6" fill="#fff"/>
	<rect x="6" y="2" width="1" height="1" fill="#fff"/>
	<rect x="6" y="4" width="1" height="2" fill="#fff"/>
	<polyline points="8,2 9,2 9,3 10,3 10,4 9,4 9,5 10,5 10,4 11,4 11,6 8,6" fill="#fff"/>
	<rect x="12" y="2" width="1" height="1" fill="#fff"/>
	<rect x="12" y="4" width="1" height="2" fill="#fff"/>
	<rect x="2" y="7" width="4" height="1" fill="#fff"/>
	<rect x="2" y="9" width="4" height="1" fill="#fff"/>
	<rect x="2" y="11" width="4" height="1" fill="#fff"/>
	<rect x="2" y="13" width="4" height="1" fill="#fff"/>
	<polyline points="9,7 13,7 13,14 8,14 8,12 9,12 9,13 10,13 10,11 11,11 11,13 12,13 12,10 11,10 11,11 14,11 14,8 8,8 8,12 7,12 7,9 9,9" fill="#fff"/>
</svg>