<?xml version="1.0" encoding="UTF-8" standalone="no"?>
<!DOCTYPE svg PUBLIC "-//W3C//DTD SVG 1.1//EN" "http://www.w3.org/Graphics/SVG/1.1/DTD/svg11.dtd">
<svg width="16" height="16" viewBox="0 0 16 16" xmlns="http://www.w3.org/2000/svg" xmlns:xlink="http://www.w3.org/1999/xlink">
	<rect width="16" height="16" fill="#d4c148"/>
	<polyline points="2,2 5,2 5,3 3,3 3,7 2,7" fill="#fff"/>
	<polyline points="4,6 5,6 5,9 6,9 6,4 7,4 7,8 8,8 8,3 9,3 9,7 10,7 10,3 11,3 11,10 12,10 12,8 13,8 13,11 12,11 12,12 11,12 11,13 6,13 6,12 5,12 5,11 4,11" fill="#fff"/>
	<rect x="12" y="13" width="2" height="1" fill="#fff"/>
</svg>